<?xml version="1.0" standalone="no"?>
<!DOCTYPE svg PUBLIC "-//W3C//DTD SVG 20010904//EN"
 "http://www.w3.org/TR/2001/REC-SVG-20010904/DTD/svg10.dtd">
<svg version="1.0" xmlns="http://www.w3.org/2000/svg"
 width="740.000000pt" height="361.000000pt" viewBox="0 0 740.000000 361.000000"
 preserveAspectRatio="xMidYMid meet">

<g transform="translate(0.000000,361.000000) scale(0.100000,-0.100000)"
fill="#000000" stroke="none">
<path d="M6752 3548 l-2 -48 53 3 c48 2 52 4 52 27 0 20 -5 25 -25 25 -18 0
-26 -6 -28 -22 -2 -15 -10 -23 -22 -23 -15 0 -20 9 -23 43 l-4 42 -1 -47z m94
-9 c10 -17 -13 -36 -27 -22 -12 12 -4 33 11 33 5 0 12 -5 16 -11z"/>
<path d="M6871 3528 c1 -22 3 -26 6 -13 3 11 10 26 15 33 8 9 6 12 -6 12 -12
0 -16 -9 -15 -32z"/>
<path d="M6914 3546 c-9 -23 3 -46 23 -46 15 0 15 2 -3 15 -18 14 -18 14 4 15
14 0 22 5 20 13 -7 18 -37 21 -44 3z"/>
<path d="M6971 3528 c1 -28 2 -30 7 -10 4 13 12 23 17 23 6 0 13 -10 17 -23 6
-22 6 -21 7 5 1 34 18 36 24 2 4 -23 4 -23 3 2 -1 25 -5 28 -38 31 -37 2 -38
1 -37 -30z"/>
<path d="M7102 3530 c0 -19 2 -27 5 -17 2 9 2 25 0 35 -3 9 -5 1 -5 -18z"/>
<path d="M7131 3513 c1 -26 3 -41 6 -32 2 10 13 19 24 22 29 8 22 51 -8 55
-21 3 -23 0 -22 -45z m31 5 c-15 -15 -26 -4 -18 18 5 13 9 15 18 6 9 -9 9 -15
0 -24z"/>
<path d="M7194 3549 c-4 -7 1 -16 12 -22 17 -10 17 -11 -1 -18 -16 -6 -17 -8
-3 -8 25 -1 34 20 14 35 -16 12 -16 13 1 17 15 4 16 5 1 6 -9 0 -20 -4 -24
-10z"/>
<path d="M7243 3535 c2 -23 7 -31 25 -33 19 -3 22 1 21 30 -1 28 -2 29 -7 10
-4 -13 -11 -23 -17 -23 -5 0 -13 10 -17 23 -6 19 -7 18 -5 -7z"/>
<path d="M7311 3528 c2 -30 2 -31 6 -5 2 15 9 27 14 27 5 0 9 -12 10 -27 1
-26 1 -27 7 -5 4 13 12 23 17 23 6 0 13 -10 17 -23 6 -19 7 -18 5 7 -2 27 -6
30 -39 33 -37 3 -38 2 -37 -30z"/>
<path d="M2044 2995 c-91 -124 -248 -380 -369 -600 -103 -190 -216 -362 -308
-468 -88 -103 -310 -231 -485 -279 -70 -20 -82 -26 -82 -45 l0 -22 69 19 c193
54 398 168 508 282 110 116 203 258 375 575 46 83 84 150 86 148 2 -2 -6 -41
-17 -87 -61 -247 -49 -513 35 -780 28 -87 90 -236 106 -253 5 -5 0 13 -12 40
-32 74 -85 266 -106 380 -24 134 -24 375 0 505 33 182 112 379 212 530 33 49
45 76 42 96 -3 27 -5 25 -54 -41z"/>
<path d="M2541 2680 c0 -14 15 -50 35 -80 19 -30 46 -91 61 -135 22 -68 26
-99 27 -205 1 -144 -18 -227 -85 -369 -41 -88 -54 -156 -22 -116 30 38 111
220 129 290 25 98 25 307 0 390 -22 75 -66 158 -111 210 -33 38 -34 39 -34 15z"/>
<path d="M2857 2463 c-4 -3 -7 -12 -7 -19 0 -9 8 -10 34 -2 46 15 80 0 140
-61 l47 -48 -47 -24 c-27 -13 -61 -40 -76 -60 -33 -41 -98 -242 -97 -299 l1
-35 24 52 c13 29 33 90 44 135 35 138 78 184 191 208 l60 13 -40 23 c-22 12
-68 45 -103 73 -57 46 -67 51 -114 51 -28 0 -54 -3 -57 -7z"/>
<path d="M2911 2354 c0 -11 3 -14 6 -6 3 7 2 16 -1 19 -3 4 -6 -2 -5 -13z"/>
<path d="M2340 2089 c0 -12 106 -62 120 -57 5 2 -19 17 -55 35 -36 18 -65 28
-65 22z"/>
</g>
</svg>
