<svg id="Layer_1" data-name="Layer 1" xmlns="http://www.w3.org/2000/svg" xmlns:xlink="http://www.w3.org/1999/xlink" viewBox="0 0 739.48 657.21"><defs><style>.cls-1{font-size:98.39px;fill:#f7810b;font-family:FuturaBT-Medium, FuturaBT Medium;font-weight:500;}.cls-2{fill:#ffbd03;font-family:CenturyGothic, Century Gothic;font-weight:400;letter-spacing:0em;}.cls-3{fill:url(#linear-gradient);}.cls-4{fill:url(#linear-gradient-2);}.cls-5{fill:url(#linear-gradient-3);}.cls-6{fill:url(#linear-gradient-4);}.cls-7{fill:url(#linear-gradient-5);}.cls-8{fill:none;stroke-miterlimit:10;stroke-width:4.6px;stroke:url(#linear-gradient-6);}.cls-9{fill:url(#linear-gradient-7);}.cls-10{font-size:12px;font-family:MyriadPro-Regular, Myriad Pro;}.cls-11{letter-spacing:-0.01em;}.cls-12{letter-spacing:-0.01em;}</style><linearGradient id="linear-gradient" x1="362.19" y1="439.94" x2="413.92" y2="439.94" gradientUnits="userSpaceOnUse"><stop offset="0.17" stop-color="#ffbd03"/><stop offset="0.54" stop-color="#f7810b"/><stop offset="1" stop-color="#ff2402"/></linearGradient><linearGradient id="linear-gradient-2" x1="355.16" y1="441.64" x2="463.84" y2="441.64" xlink:href="#linear-gradient"/><linearGradient id="linear-gradient-3" x1="287.52" y1="422.26" x2="291.95" y2="422.26" xlink:href="#linear-gradient"/><linearGradient id="linear-gradient-4" x1="337.68" y1="416.59" x2="395.8" y2="416.59" xlink:href="#linear-gradient"/><linearGradient id="linear-gradient-5" x1="294.71" y1="470.16" x2="342.69" y2="470.16" gradientUnits="userSpaceOnUse"><stop offset="0.54" stop-color="#f7810b"/><stop offset="0.74" stop-color="#f77010"/></linearGradient><linearGradient id="linear-gradient-6" x1="222.24" y1="389.14" x2="560.57" y2="389.14" gradientUnits="userSpaceOnUse"><stop offset="0" stop-color="#ff2402"/><stop offset="0.46" stop-color="#f7810b"/><stop offset="0.83" stop-color="#ffbd03"/></linearGradient><linearGradient id="linear-gradient-7" x1="320.86" y1="403.57" x2="413.53" y2="403.57" xlink:href="#linear-gradient-6"/></defs><text class="cls-1" transform="translate(0 627.04)">SWELL<tspan class="cls-2" x="273.04" y="0">PETS</tspan></text><path class="cls-3" d="M366.26,355.1a2.44,2.44,0,0,0-3.42,1.93,86.26,86.26,0,0,0,37,82A152.35,152.35,0,0,1,389,426.15c-7.18-9.49-15.36-20.3-19.49-35.5a77.23,77.23,0,0,1-2.14-28.52,1.3,1.3,0,0,1,1.89-1,87.63,87.63,0,0,1,11.59,7.08c5.32,3.86,14.07,10.19,20.54,21.18,7,11.87,7.77,23.14,8.13,29.31,1.05,18.09-4.93,31.66-8.13,38.73a94.11,94.11,0,0,1-16.69,25,60.89,60.89,0,0,0-11.34,12.19A62.76,62.76,0,0,0,362.43,525,71.73,71.73,0,0,1,371,505.32c5.52-8.79,8.81-9.65,18.18-21.4a119.33,119.33,0,0,0,15.19-23.1,91.71,91.71,0,0,0,7.7-21.39c.41-1.87,4.11-19.66-.21-36.37C404.42,374.32,376.06,359.48,366.26,355.1Z" transform="translate(-143.37 10)"/><path class="cls-4" d="M418.2,411.47c.93-1.17,2.34-2.87,4.13-4.85a38.61,38.61,0,0,1,4-4.13c3.82-2.85,9.68-3,14-1.15.68.29.7.37,6.71,5.28s7.31,5.93,9.41,7a26,26,0,0,0,7.42,2.43A34.77,34.77,0,0,0,453,417c-3.08.78-6.17,1.56-9.27,4a22.07,22.07,0,0,0-6.85,10.12c-1.33,3.52-.82,4.41-2.71,11,0,0-1,3.38-2.14,6.56-3.33,9.06-10.66,17.42-12.41,19.25-8.57,9-33.21,18.46-64.46,14.12,19.42.87,33.59-2.6,41.78-5.28s12.58-5.23,16.21-8a44.26,44.26,0,0,0,14.17-18.08c.68-1.68,1.5-4.49,3.14-10.12,2.5-8.59,2.57-10.22,4.42-13.7a22.63,22.63,0,0,1,7.56-9,20.23,20.23,0,0,1,7.7-3,59.91,59.91,0,0,0-4.27-4.7c-1.2-1.18-5-4.91-7.42-6.14C431.23,400.43,419.34,410.48,418.2,411.47Z" transform="translate(-143.37 10)"/><circle class="cls-5" cx="289.73" cy="422.26" r="2.21"/><path class="cls-6" d="M339.57,386.65a2,2,0,0,0-1.86,2.32,72.75,72.75,0,0,0,16,33.38c15.71,18.41,35.86,23,42.12,24.21A96.35,96.35,0,0,1,381.54,440c-6-3.37-16.55-9.48-25.81-21.4a75.87,75.87,0,0,1-13-25.65,2,2,0,0,1,1.64-2.48c.86-.1,1.84-.19,2.9-.25,7.37-.4,12.15,1.16,12.27.71s-4.9-2.71-11.17-3.74A43.44,43.44,0,0,0,339.57,386.65Z" transform="translate(-143.37 10)"/><path class="cls-7" d="M300.32,425.42A94.12,94.12,0,0,0,299,452.05,79.15,79.15,0,0,0,301.37,465c.52,2.13,1.25,4.19,1.94,6.26.37,1,.8,2,1.19,3.05l.61,1.52.7,1.48,1.4,3c.49,1,1.06,1.91,1.58,2.86,1,2,2.3,3.71,3.43,5.58a83.77,83.77,0,0,0,29.59,26.21A63.12,63.12,0,0,1,318,501.49a70.25,70.25,0,0,1-9.41-10.23l-2-2.88c-.32-.48-.67-.95-1-1.45l-.88-1.51c-.58-1-1.18-2-1.72-3l-1.52-3.15-.73-1.58L300.2,476c-.41-1.09-.86-2.16-1.23-3.26-.68-2.23-1.42-4.43-1.88-6.72a67.74,67.74,0,0,1,3.23-40.62Z" transform="translate(-143.37 10)"/><path class="cls-8" d="M222.72,487.5a124.64,124.64,0,0,0,14.3-3.92s4.49-1.53,11-4.5a166.26,166.26,0,0,0,22.92-13.2c17.34-12.21,36.77-48.4,41.86-57.72,15.76-28.87,30.25-54.51,54.63-77.55,11.76-11.1,26.88-25.09,51.24-33.1,11-3.63,40.78-13.41,71.24.77A83.78,83.78,0,0,1,519.76,322c-7.47,4.22-33.1,19.92-44.42,52.09a94.65,94.65,0,0,0-3.83,48.25c1,5.53,3.74,20.28,13,32.94,23.26,31.74,71.39,28,75.83,27.57" transform="translate(-143.37 10)"/><path class="cls-9" d="M412.65,299.68a156.61,156.61,0,0,0-26.79,15.49,148.18,148.18,0,0,0-23.07,20.29,142.43,142.43,0,0,0-30.63,52.43,145.64,145.64,0,0,0-5.76,60.52,175.29,175.29,0,0,0,6.06,30.17,171,171,0,0,0,11.17,28.89,142.13,142.13,0,0,1-13.44-28.15q-2.6-7.4-4.53-15c-1.27-5.08-2.24-10.24-3-15.43a146.78,146.78,0,0,1-1.42-15.69,151,151,0,0,1,.3-15.78,140.75,140.75,0,0,1,6-31c.87-2.49,1.71-5,2.67-7.45l1.5-3.66.75-1.83.86-1.78,3.44-7.12c1.24-2.33,2.61-4.58,3.94-6.86a135.42,135.42,0,0,1,43.84-44.51A132.24,132.24,0,0,1,412.65,299.68Z" transform="translate(-143.37 10)"/><text class="cls-10" transform="translate(674.02 307.34)"><tspan class="cls-11">L</tspan><tspan x="5.5" y="0">o</tspan><tspan class="cls-12" x="12.08" y="0">r</tspan><tspan x="15.89" y="0">em ipsum</tspan></text><text x="-143.37" y="10"/></svg>